<?xml version="1.0" encoding="utf-8" standalone="no"?>
<!DOCTYPE svg PUBLIC "-//W3C//DTD SVG 1.1//EN"
  "http://www.w3.org/Graphics/SVG/1.1/DTD/svg11.dtd">
<svg xmlns:xlink="http://www.w3.org/1999/xlink" width="864pt" height="576pt" viewBox="0 0 864 576" xmlns="http://www.w3.org/2000/svg" version="1.1">
 <metadata>
  <rdf:RDF xmlns:dc="http://purl.org/dc/elements/1.1/" xmlns:cc="http://creativecommons.org/ns#" xmlns:rdf="http://www.w3.org/1999/02/22-rdf-syntax-ns#">
   <cc:Work>
    <dc:type rdf:resource="http://purl.org/dc/dcmitype/StillImage"/>
    <dc:date>2025-12-05T16:17:38.808613</dc:date>
    <dc:format>image/svg+xml</dc:format>
    <dc:creator>
     <cc:Agent>
      <dc:title>Matplotlib v3.10.7, https://matplotlib.org/</dc:title>
     </cc:Agent>
    </dc:creator>
   </cc:Work>
  </rdf:RDF>
 </metadata>
 <defs>
  <style type="text/css">*{stroke-linejoin: round; stroke-linecap: butt}</style>
 </defs>
 <g id="figure_1">
  <g id="patch_1">
   <path d="M 0 576 
L 864 576 
L 864 0 
L 0 0 
z
" style="fill: #ffffff"/>
  </g>
  <g id="axes_1">
   <g id="patch_2">
    <path d="M 47.72 534.04 
L 853.2 534.04 
L 853.2 26.88 
L 47.72 26.88 
z
" style="fill: #ffffff"/>
   </g>
   <g id="matplotlib.axis_1">
    <g id="xtick_1">
     <g id="line2d_1">
      <path d="M 80.653056 534.04 
L 80.653056 26.88 
" clip-path="url(#p6f6427985f)" style="fill: none; stroke-dasharray: 2.96,1.28; stroke-dashoffset: 0; stroke: #b0b0b0; stroke-opacity: 0.7; stroke-width: 0.8"/>
     </g>
     <g id="line2d_2">
      <defs>
       <path id="m593191339a" d="M 0 0 
L 0 3.5 
" style="stroke: #000000; stroke-width: 0.8"/>
      </defs>
      <g>
       <use xlink:href="#m593191339a" x="80.653056" y="534.04" style="stroke: #000000; stroke-width: 0.8"/>
      </g>
     </g>
     <g id="text_1">
      <!-- 0 -->
      <g transform="translate(77.471806 548.638438) scale(0.1 -0.1)">
       <defs>
        <path id="DejaVuSans-30" d="M 2034 4250 
Q 1547 4250 1301 3770 
Q 1056 3291 1056 2328 
Q 1056 1369 1301 889 
Q 1547 409 2034 409 
Q 2525 409 2770 889 
Q 3016 1369 3016 2328 
Q 3016 3291 2770 3770 
Q 2525 4250 2034 4250 
z
M 2034 4750 
Q 2819 4750 3233 4129 
Q 3647 3509 3647 2328 
Q 3647 1150 3233 529 
Q 2819 -91 2034 -91 
Q 1250 -91 836 529 
Q 422 1150 422 2328 
Q 422 3509 836 4129 
Q 1250 4750 2034 4750 
z
" transform="scale(0.015625)"/>
       </defs>
       <use xlink:href="#DejaVuSans-30"/>
      </g>
     </g>
    </g>
    <g id="xtick_2">
     <g id="line2d_3">
      <path d="M 172.644833 534.04 
L 172.644833 26.88 
" clip-path="url(#p6f6427985f)" style="fill: none; stroke-dasharray: 2.96,1.28; stroke-dashoffset: 0; stroke: #b0b0b0; stroke-opacity: 0.7; stroke-width: 0.8"/>
     </g>
     <g id="line2d_4">
      <g>
       <use xlink:href="#m593191339a" x="172.644833" y="534.04" style="stroke: #000000; stroke-width: 0.8"/>
      </g>
     </g>
     <g id="text_2">
      <!-- 25 -->
      <g transform="translate(166.282333 548.638438) scale(0.1 -0.1)">
       <defs>
        <path id="DejaVuSans-32" d="M 1228 531 
L 3431 531 
L 3431 0 
L 469 0 
L 469 531 
Q 828 903 1448 1529 
Q 2069 2156 2228 2338 
Q 2531 2678 2651 2914 
Q 2772 3150 2772 3378 
Q 2772 3750 2511 3984 
Q 2250 4219 1831 4219 
Q 1534 4219 1204 4116 
Q 875 4013 500 3803 
L 500 4441 
Q 881 4594 1212 4672 
Q 1544 4750 1819 4750 
Q 2544 4750 2975 4387 
Q 3406 4025 3406 3419 
Q 3406 3131 3298 2873 
Q 3191 2616 2906 2266 
Q 2828 2175 2409 1742 
Q 1991 1309 1228 531 
z
" transform="scale(0.015625)"/>
        <path id="DejaVuSans-35" d="M 691 4666 
L 3169 4666 
L 3169 4134 
L 1269 4134 
L 1269 2991 
Q 1406 3038 1543 3061 
Q 1681 3084 1819 3084 
Q 2600 3084 3056 2656 
Q 3513 2228 3513 1497 
Q 3513 744 3044 326 
Q 2575 -91 1722 -91 
Q 1428 -91 1123 -41 
Q 819 9 494 109 
L 494 744 
Q 775 591 1075 516 
Q 1375 441 1709 441 
Q 2250 441 2565 725 
Q 2881 1009 2881 1497 
Q 2881 1984 2565 2268 
Q 2250 2553 1709 2553 
Q 1456 2553 1204 2497 
Q 953 2441 691 2322 
L 691 4666 
z
" transform="scale(0.015625)"/>
       </defs>
       <use xlink:href="#DejaVuSans-32"/>
       <use xlink:href="#DejaVuSans-35" transform="translate(63.623047 0)"/>
      </g>
     </g>
    </g>
    <g id="xtick_3">
     <g id="line2d_5">
      <path d="M 264.63661 534.04 
L 264.63661 26.88 
" clip-path="url(#p6f6427985f)" style="fill: none; stroke-dasharray: 2.96,1.28; stroke-dashoffset: 0; stroke: #b0b0b0; stroke-opacity: 0.7; stroke-width: 0.8"/>
     </g>
     <g id="line2d_6">
      <g>
       <use xlink:href="#m593191339a" x="264.63661" y="534.04" style="stroke: #000000; stroke-width: 0.8"/>
      </g>
     </g>
     <g id="text_3">
      <!-- 50 -->
      <g transform="translate(258.27411 548.638438) scale(0.1 -0.1)">
       <use xlink:href="#DejaVuSans-35"/>
       <use xlink:href="#DejaVuSans-30" transform="translate(63.623047 0)"/>
      </g>
     </g>
    </g>
    <g id="xtick_4">
     <g id="line2d_7">
      <path d="M 356.628387 534.04 
L 356.628387 26.88 
" clip-path="url(#p6f6427985f)" style="fill: none; stroke-dasharray: 2.96,1.28; stroke-dashoffset: 0; stroke: #b0b0b0; stroke-opacity: 0.7; stroke-width: 0.8"/>
     </g>
     <g id="line2d_8">
      <g>
       <use xlink:href="#m593191339a" x="356.628387" y="534.04" style="stroke: #000000; stroke-width: 0.8"/>
      </g>
     </g>
     <g id="text_4">
      <!-- 75 -->
      <g transform="translate(350.265887 548.638438) scale(0.1 -0.1)">
       <defs>
        <path id="DejaVuSans-37" d="M 525 4666 
L 3525 4666 
L 3525 4397 
L 1831 0 
L 1172 0 
L 2766 4134 
L 525 4134 
L 525 4666 
z
" transform="scale(0.015625)"/>
       </defs>
       <use xlink:href="#DejaVuSans-37"/>
       <use xlink:href="#DejaVuSans-35" transform="translate(63.623047 0)"/>
      </g>
     </g>
    </g>
    <g id="xtick_5">
     <g id="line2d_9">
      <path d="M 448.620164 534.04 
L 448.620164 26.88 
" clip-path="url(#p6f6427985f)" style="fill: none; stroke-dasharray: 2.96,1.28; stroke-dashoffset: 0; stroke: #b0b0b0; stroke-opacity: 0.7; stroke-width: 0.8"/>
     </g>
     <g id="line2d_10">
      <g>
       <use xlink:href="#m593191339a" x="448.620164" y="534.04" style="stroke: #000000; stroke-width: 0.8"/>
      </g>
     </g>
     <g id="text_5">
      <!-- 100 -->
      <g transform="translate(439.076414 548.638438) scale(0.1 -0.1)">
       <defs>
        <path id="DejaVuSans-31" d="M 794 531 
L 1825 531 
L 1825 4091 
L 703 3866 
L 703 4441 
L 1819 4666 
L 2450 4666 
L 2450 531 
L 3481 531 
L 3481 0 
L 794 0 
L 794 531 
z
" transform="scale(0.015625)"/>
       </defs>
       <use xlink:href="#DejaVuSans-31"/>
       <use xlink:href="#DejaVuSans-30" transform="translate(63.623047 0)"/>
       <use xlink:href="#DejaVuSans-30" transform="translate(127.246094 0)"/>
      </g>
     </g>
    </g>
    <g id="xtick_6">
     <g id="line2d_11">
      <path d="M 540.611942 534.04 
L 540.611942 26.88 
" clip-path="url(#p6f6427985f)" style="fill: none; stroke-dasharray: 2.96,1.28; stroke-dashoffset: 0; stroke: #b0b0b0; stroke-opacity: 0.7; stroke-width: 0.8"/>
     </g>
     <g id="line2d_12">
      <g>
       <use xlink:href="#m593191339a" x="540.611942" y="534.04" style="stroke: #000000; stroke-width: 0.8"/>
      </g>
     </g>
     <g id="text_6">
      <!-- 125 -->
      <g transform="translate(531.068192 548.638438) scale(0.1 -0.1)">
       <use xlink:href="#DejaVuSans-31"/>
       <use xlink:href="#DejaVuSans-32" transform="translate(63.623047 0)"/>
       <use xlink:href="#DejaVuSans-35" transform="translate(127.246094 0)"/>
      </g>
     </g>
    </g>
    <g id="xtick_7">
     <g id="line2d_13">
      <path d="M 632.603719 534.04 
L 632.603719 26.88 
" clip-path="url(#p6f6427985f)" style="fill: none; stroke-dasharray: 2.96,1.28; stroke-dashoffset: 0; stroke: #b0b0b0; stroke-opacity: 0.7; stroke-width: 0.8"/>
     </g>
     <g id="line2d_14">
      <g>
       <use xlink:href="#m593191339a" x="632.603719" y="534.04" style="stroke: #000000; stroke-width: 0.8"/>
      </g>
     </g>
     <g id="text_7">
      <!-- 150 -->
      <g transform="translate(623.059969 548.638438) scale(0.1 -0.1)">
       <use xlink:href="#DejaVuSans-31"/>
       <use xlink:href="#DejaVuSans-35" transform="translate(63.623047 0)"/>
       <use xlink:href="#DejaVuSans-30" transform="translate(127.246094 0)"/>
      </g>
     </g>
    </g>
    <g id="xtick_8">
     <g id="line2d_15">
      <path d="M 724.595496 534.04 
L 724.595496 26.88 
" clip-path="url(#p6f6427985f)" style="fill: none; stroke-dasharray: 2.96,1.28; stroke-dashoffset: 0; stroke: #b0b0b0; stroke-opacity: 0.7; stroke-width: 0.8"/>
     </g>
     <g id="line2d_16">
      <g>
       <use xlink:href="#m593191339a" x="724.595496" y="534.04" style="stroke: #000000; stroke-width: 0.8"/>
      </g>
     </g>
     <g id="text_8">
      <!-- 175 -->
      <g transform="translate(715.051746 548.638438) scale(0.1 -0.1)">
       <use xlink:href="#DejaVuSans-31"/>
       <use xlink:href="#DejaVuSans-37" transform="translate(63.623047 0)"/>
       <use xlink:href="#DejaVuSans-35" transform="translate(127.246094 0)"/>
      </g>
     </g>
    </g>
    <g id="xtick_9">
     <g id="line2d_17">
      <path d="M 816.587273 534.04 
L 816.587273 26.88 
" clip-path="url(#p6f6427985f)" style="fill: none; stroke-dasharray: 2.96,1.28; stroke-dashoffset: 0; stroke: #b0b0b0; stroke-opacity: 0.7; stroke-width: 0.8"/>
     </g>
     <g id="line2d_18">
      <g>
       <use xlink:href="#m593191339a" x="816.587273" y="534.04" style="stroke: #000000; stroke-width: 0.8"/>
      </g>
     </g>
     <g id="text_9">
      <!-- 200 -->
      <g transform="translate(807.043523 548.638438) scale(0.1 -0.1)">
       <use xlink:href="#DejaVuSans-32"/>
       <use xlink:href="#DejaVuSans-30" transform="translate(63.623047 0)"/>
       <use xlink:href="#DejaVuSans-30" transform="translate(127.246094 0)"/>
      </g>
     </g>
    </g>
    <g id="text_10">
     <!-- Epoch -->
     <g transform="translate(435.149063 562.316562) scale(0.1 -0.1)">
      <defs>
       <path id="DejaVuSans-45" d="M 628 4666 
L 3578 4666 
L 3578 4134 
L 1259 4134 
L 1259 2753 
L 3481 2753 
L 3481 2222 
L 1259 2222 
L 1259 531 
L 3634 531 
L 3634 0 
L 628 0 
L 628 4666 
z
" transform="scale(0.015625)"/>
       <path id="DejaVuSans-70" d="M 1159 525 
L 1159 -1331 
L 581 -1331 
L 581 3500 
L 1159 3500 
L 1159 2969 
Q 1341 3281 1617 3432 
Q 1894 3584 2278 3584 
Q 2916 3584 3314 3078 
Q 3713 2572 3713 1747 
Q 3713 922 3314 415 
Q 2916 -91 2278 -91 
Q 1894 -91 1617 61 
Q 1341 213 1159 525 
z
M 3116 1747 
Q 3116 2381 2855 2742 
Q 2594 3103 2138 3103 
Q 1681 3103 1420 2742 
Q 1159 2381 1159 1747 
Q 1159 1113 1420 752 
Q 1681 391 2138 391 
Q 2594 391 2855 752 
Q 3116 1113 3116 1747 
z
" transform="scale(0.015625)"/>
       <path id="DejaVuSans-6f" d="M 1959 3097 
Q 1497 3097 1228 2736 
Q 959 2375 959 1747 
Q 959 1119 1226 758 
Q 1494 397 1959 397 
Q 2419 397 2687 759 
Q 2956 1122 2956 1747 
Q 2956 2369 2687 2733 
Q 2419 3097 1959 3097 
z
M 1959 3584 
Q 2709 3584 3137 3096 
Q 3566 2609 3566 1747 
Q 3566 888 3137 398 
Q 2709 -91 1959 -91 
Q 1206 -91 779 398 
Q 353 888 353 1747 
Q 353 2609 779 3096 
Q 1206 3584 1959 3584 
z
" transform="scale(0.015625)"/>
       <path id="DejaVuSans-63" d="M 3122 3366 
L 3122 2828 
Q 2878 2963 2633 3030 
Q 2388 3097 2138 3097 
Q 1578 3097 1268 2742 
Q 959 2388 959 1747 
Q 959 1106 1268 751 
Q 1578 397 2138 397 
Q 2388 397 2633 464 
Q 2878 531 3122 666 
L 3122 134 
Q 2881 22 2623 -34 
Q 2366 -91 2075 -91 
Q 1284 -91 818 406 
Q 353 903 353 1747 
Q 353 2603 823 3093 
Q 1294 3584 2113 3584 
Q 2378 3584 2631 3529 
Q 2884 3475 3122 3366 
z
" transform="scale(0.015625)"/>
       <path id="DejaVuSans-68" d="M 3513 2113 
L 3513 0 
L 2938 0 
L 2938 2094 
Q 2938 2591 2744 2837 
Q 2550 3084 2163 3084 
Q 1697 3084 1428 2787 
Q 1159 2491 1159 1978 
L 1159 0 
L 581 0 
L 581 4863 
L 1159 4863 
L 1159 2956 
Q 1366 3272 1645 3428 
Q 1925 3584 2291 3584 
Q 2894 3584 3203 3211 
Q 3513 2838 3513 2113 
z
" transform="scale(0.015625)"/>
      </defs>
      <use xlink:href="#DejaVuSans-45"/>
      <use xlink:href="#DejaVuSans-70" transform="translate(63.183594 0)"/>
      <use xlink:href="#DejaVuSans-6f" transform="translate(126.660156 0)"/>
      <use xlink:href="#DejaVuSans-63" transform="translate(187.841797 0)"/>
      <use xlink:href="#DejaVuSans-68" transform="translate(242.822266 0)"/>
     </g>
    </g>
   </g>
   <g id="matplotlib.axis_2">
    <g id="ytick_1">
     <g id="line2d_19">
      <path d="M 47.72 521.183736 
L 853.2 521.183736 
" clip-path="url(#p6f6427985f)" style="fill: none; stroke-dasharray: 2.96,1.28; stroke-dashoffset: 0; stroke: #b0b0b0; stroke-opacity: 0.7; stroke-width: 0.8"/>
     </g>
     <g id="line2d_20">
      <defs>
       <path id="mcc1019ac08" d="M 0 0 
L -3.5 0 
" style="stroke: #000000; stroke-width: 0.8"/>
      </defs>
      <g>
       <use xlink:href="#mcc1019ac08" x="47.72" y="521.183736" style="stroke: #000000; stroke-width: 0.8"/>
      </g>
     </g>
     <g id="text_11">
      <!-- 0.1 -->
      <g transform="translate(24.816875 524.982955) scale(0.1 -0.1)">
       <defs>
        <path id="DejaVuSans-2e" d="M 684 794 
L 1344 794 
L 1344 0 
L 684 0 
L 684 794 
z
" transform="scale(0.015625)"/>
       </defs>
       <use xlink:href="#DejaVuSans-30"/>
       <use xlink:href="#DejaVuSans-2e" transform="translate(63.623047 0)"/>
       <use xlink:href="#DejaVuSans-31" transform="translate(95.410156 0)"/>
      </g>
     </g>
    </g>
    <g id="ytick_2">
     <g id="line2d_21">
      <path d="M 47.72 440.910141 
L 853.2 440.910141 
" clip-path="url(#p6f6427985f)" style="fill: none; stroke-dasharray: 2.96,1.28; stroke-dashoffset: 0; stroke: #b0b0b0; stroke-opacity: 0.7; stroke-width: 0.8"/>
     </g>
     <g id="line2d_22">
      <g>
       <use xlink:href="#mcc1019ac08" x="47.72" y="440.910141" style="stroke: #000000; stroke-width: 0.8"/>
      </g>
     </g>
     <g id="text_12">
      <!-- 0.2 -->
      <g transform="translate(24.816875 444.70936) scale(0.1 -0.1)">
       <use xlink:href="#DejaVuSans-30"/>
       <use xlink:href="#DejaVuSans-2e" transform="translate(63.623047 0)"/>
       <use xlink:href="#DejaVuSans-32" transform="translate(95.410156 0)"/>
      </g>
     </g>
    </g>
    <g id="ytick_3">
     <g id="line2d_23">
      <path d="M 47.72 360.636546 
L 853.2 360.636546 
" clip-path="url(#p6f6427985f)" style="fill: none; stroke-dasharray: 2.96,1.28; stroke-dashoffset: 0; stroke: #b0b0b0; stroke-opacity: 0.7; stroke-width: 0.8"/>
     </g>
     <g id="line2d_24">
      <g>
       <use xlink:href="#mcc1019ac08" x="47.72" y="360.636546" style="stroke: #000000; stroke-width: 0.8"/>
      </g>
     </g>
     <g id="text_13">
      <!-- 0.3 -->
      <g transform="translate(24.816875 364.435765) scale(0.1 -0.1)">
       <defs>
        <path id="DejaVuSans-33" d="M 2597 2516 
Q 3050 2419 3304 2112 
Q 3559 1806 3559 1356 
Q 3559 666 3084 287 
Q 2609 -91 1734 -91 
Q 1441 -91 1130 -33 
Q 819 25 488 141 
L 488 750 
Q 750 597 1062 519 
Q 1375 441 1716 441 
Q 2309 441 2620 675 
Q 2931 909 2931 1356 
Q 2931 1769 2642 2001 
Q 2353 2234 1838 2234 
L 1294 2234 
L 1294 2753 
L 1863 2753 
Q 2328 2753 2575 2939 
Q 2822 3125 2822 3475 
Q 2822 3834 2567 4026 
Q 2313 4219 1838 4219 
Q 1578 4219 1281 4162 
Q 984 4106 628 3988 
L 628 4550 
Q 988 4650 1302 4700 
Q 1616 4750 1894 4750 
Q 2613 4750 3031 4423 
Q 3450 4097 3450 3541 
Q 3450 3153 3228 2886 
Q 3006 2619 2597 2516 
z
" transform="scale(0.015625)"/>
       </defs>
       <use xlink:href="#DejaVuSans-30"/>
       <use xlink:href="#DejaVuSans-2e" transform="translate(63.623047 0)"/>
       <use xlink:href="#DejaVuSans-33" transform="translate(95.410156 0)"/>
      </g>
     </g>
    </g>
    <g id="ytick_4">
     <g id="line2d_25">
      <path d="M 47.72 280.362951 
L 853.2 280.362951 
" clip-path="url(#p6f6427985f)" style="fill: none; stroke-dasharray: 2.96,1.28; stroke-dashoffset: 0; stroke: #b0b0b0; stroke-opacity: 0.7; stroke-width: 0.8"/>
     </g>
     <g id="line2d_26">
      <g>
       <use xlink:href="#mcc1019ac08" x="47.72" y="280.362951" style="stroke: #000000; stroke-width: 0.8"/>
      </g>
     </g>
     <g id="text_14">
      <!-- 0.4 -->
      <g transform="translate(24.816875 284.162169) scale(0.1 -0.1)">
       <defs>
        <path id="DejaVuSans-34" d="M 2419 4116 
L 825 1625 
L 2419 1625 
L 2419 4116 
z
M 2253 4666 
L 3047 4666 
L 3047 1625 
L 3713 1625 
L 3713 1100 
L 3047 1100 
L 3047 0 
L 2419 0 
L 2419 1100 
L 313 1100 
L 313 1709 
L 2253 4666 
z
" transform="scale(0.015625)"/>
       </defs>
       <use xlink:href="#DejaVuSans-30"/>
       <use xlink:href="#DejaVuSans-2e" transform="translate(63.623047 0)"/>
       <use xlink:href="#DejaVuSans-34" transform="translate(95.410156 0)"/>
      </g>
     </g>
    </g>
    <g id="ytick_5">
     <g id="line2d_27">
      <path d="M 47.72 200.089355 
L 853.2 200.089355 
" clip-path="url(#p6f6427985f)" style="fill: none; stroke-dasharray: 2.96,1.28; stroke-dashoffset: 0; stroke: #b0b0b0; stroke-opacity: 0.7; stroke-width: 0.8"/>
     </g>
     <g id="line2d_28">
      <g>
       <use xlink:href="#mcc1019ac08" x="47.72" y="200.089355" style="stroke: #000000; stroke-width: 0.8"/>
      </g>
     </g>
     <g id="text_15">
      <!-- 0.5 -->
      <g transform="translate(24.816875 203.888574) scale(0.1 -0.1)">
       <use xlink:href="#DejaVuSans-30"/>
       <use xlink:href="#DejaVuSans-2e" transform="translate(63.623047 0)"/>
       <use xlink:href="#DejaVuSans-35" transform="translate(95.410156 0)"/>
      </g>
     </g>
    </g>
    <g id="ytick_6">
     <g id="line2d_29">
      <path d="M 47.72 119.81576 
L 853.2 119.81576 
" clip-path="url(#p6f6427985f)" style="fill: none; stroke-dasharray: 2.96,1.28; stroke-dashoffset: 0; stroke: #b0b0b0; stroke-opacity: 0.7; stroke-width: 0.8"/>
     </g>
     <g id="line2d_30">
      <g>
       <use xlink:href="#mcc1019ac08" x="47.72" y="119.81576" style="stroke: #000000; stroke-width: 0.8"/>
      </g>
     </g>
     <g id="text_16">
      <!-- 0.6 -->
      <g transform="translate(24.816875 123.614979) scale(0.1 -0.1)">
       <defs>
        <path id="DejaVuSans-36" d="M 2113 2584 
Q 1688 2584 1439 2293 
Q 1191 2003 1191 1497 
Q 1191 994 1439 701 
Q 1688 409 2113 409 
Q 2538 409 2786 701 
Q 3034 994 3034 1497 
Q 3034 2003 2786 2293 
Q 2538 2584 2113 2584 
z
M 3366 4563 
L 3366 3988 
Q 3128 4100 2886 4159 
Q 2644 4219 2406 4219 
Q 1781 4219 1451 3797 
Q 1122 3375 1075 2522 
Q 1259 2794 1537 2939 
Q 1816 3084 2150 3084 
Q 2853 3084 3261 2657 
Q 3669 2231 3669 1497 
Q 3669 778 3244 343 
Q 2819 -91 2113 -91 
Q 1303 -91 875 529 
Q 447 1150 447 2328 
Q 447 3434 972 4092 
Q 1497 4750 2381 4750 
Q 2619 4750 2861 4703 
Q 3103 4656 3366 4563 
z
" transform="scale(0.015625)"/>
       </defs>
       <use xlink:href="#DejaVuSans-30"/>
       <use xlink:href="#DejaVuSans-2e" transform="translate(63.623047 0)"/>
       <use xlink:href="#DejaVuSans-36" transform="translate(95.410156 0)"/>
      </g>
     </g>
    </g>
    <g id="ytick_7">
     <g id="line2d_31">
      <path d="M 47.72 39.542165 
L 853.2 39.542165 
" clip-path="url(#p6f6427985f)" style="fill: none; stroke-dasharray: 2.96,1.28; stroke-dashoffset: 0; stroke: #b0b0b0; stroke-opacity: 0.7; stroke-width: 0.8"/>
     </g>
     <g id="line2d_32">
      <g>
       <use xlink:href="#mcc1019ac08" x="47.72" y="39.542165" style="stroke: #000000; stroke-width: 0.8"/>
      </g>
     </g>
     <g id="text_17">
      <!-- 0.7 -->
      <g transform="translate(24.816875 43.341384) scale(0.1 -0.1)">
       <use xlink:href="#DejaVuSans-30"/>
       <use xlink:href="#DejaVuSans-2e" transform="translate(63.623047 0)"/>
       <use xlink:href="#DejaVuSans-37" transform="translate(95.410156 0)"/>
      </g>
     </g>
    </g>
    <g id="text_18">
     <!-- IoU Score -->
     <g transform="translate(18.737188 304.245156) rotate(-90) scale(0.1 -0.1)">
      <defs>
       <path id="DejaVuSans-49" d="M 628 4666 
L 1259 4666 
L 1259 0 
L 628 0 
L 628 4666 
z
" transform="scale(0.015625)"/>
       <path id="DejaVuSans-55" d="M 556 4666 
L 1191 4666 
L 1191 1831 
Q 1191 1081 1462 751 
Q 1734 422 2344 422 
Q 2950 422 3222 751 
Q 3494 1081 3494 1831 
L 3494 4666 
L 4128 4666 
L 4128 1753 
Q 4128 841 3676 375 
Q 3225 -91 2344 -91 
Q 1459 -91 1007 375 
Q 556 841 556 1753 
L 556 4666 
z
" transform="scale(0.015625)"/>
       <path id="DejaVuSans-20" transform="scale(0.015625)"/>
       <path id="DejaVuSans-53" d="M 3425 4513 
L 3425 3897 
Q 3066 4069 2747 4153 
Q 2428 4238 2131 4238 
Q 1616 4238 1336 4038 
Q 1056 3838 1056 3469 
Q 1056 3159 1242 3001 
Q 1428 2844 1947 2747 
L 2328 2669 
Q 3034 2534 3370 2195 
Q 3706 1856 3706 1288 
Q 3706 609 3251 259 
Q 2797 -91 1919 -91 
Q 1588 -91 1214 -16 
Q 841 59 441 206 
L 441 856 
Q 825 641 1194 531 
Q 1563 422 1919 422 
Q 2459 422 2753 634 
Q 3047 847 3047 1241 
Q 3047 1584 2836 1778 
Q 2625 1972 2144 2069 
L 1759 2144 
Q 1053 2284 737 2584 
Q 422 2884 422 3419 
Q 422 4038 858 4394 
Q 1294 4750 2059 4750 
Q 2388 4750 2728 4690 
Q 3069 4631 3425 4513 
z
" transform="scale(0.015625)"/>
       <path id="DejaVuSans-72" d="M 2631 2963 
Q 2534 3019 2420 3045 
Q 2306 3072 2169 3072 
Q 1681 3072 1420 2755 
Q 1159 2438 1159 1844 
L 1159 0 
L 581 0 
L 581 3500 
L 1159 3500 
L 1159 2956 
Q 1341 3275 1631 3429 
Q 1922 3584 2338 3584 
Q 2397 3584 2469 3576 
Q 2541 3569 2628 3553 
L 2631 2963 
z
" transform="scale(0.015625)"/>
       <path id="DejaVuSans-65" d="M 3597 1894 
L 3597 1613 
L 953 1613 
Q 991 1019 1311 708 
Q 1631 397 2203 397 
Q 2534 397 2845 478 
Q 3156 559 3463 722 
L 3463 178 
Q 3153 47 2828 -22 
Q 2503 -91 2169 -91 
Q 1331 -91 842 396 
Q 353 884 353 1716 
Q 353 2575 817 3079 
Q 1281 3584 2069 3584 
Q 2775 3584 3186 3129 
Q 3597 2675 3597 1894 
z
M 3022 2063 
Q 3016 2534 2758 2815 
Q 2500 3097 2075 3097 
Q 1594 3097 1305 2825 
Q 1016 2553 972 2059 
L 3022 2063 
z
" transform="scale(0.015625)"/>
      </defs>
      <use xlink:href="#DejaVuSans-49"/>
      <use xlink:href="#DejaVuSans-6f" transform="translate(29.492188 0)"/>
      <use xlink:href="#DejaVuSans-55" transform="translate(90.673828 0)"/>
      <use xlink:href="#DejaVuSans-20" transform="translate(163.867188 0)"/>
      <use xlink:href="#DejaVuSans-53" transform="translate(195.654297 0)"/>
      <use xlink:href="#DejaVuSans-63" transform="translate(259.130859 0)"/>
      <use xlink:href="#DejaVuSans-6f" transform="translate(314.111328 0)"/>
      <use xlink:href="#DejaVuSans-72" transform="translate(375.292969 0)"/>
      <use xlink:href="#DejaVuSans-65" transform="translate(414.15625 0)"/>
     </g>
    </g>
   </g>
   <g id="line2d_33">
    <path d="M 84.332727 510.987273 
L 88.012398 506.933316 
L 91.692069 506.728324 
L 95.371741 503.136972 
L 99.051412 472.361198 
L 102.731083 415.788184 
L 106.410754 344.360732 
L 110.090425 282.973814 
L 113.770096 250.953443 
L 117.449767 223.809474 
L 121.129438 208.202203 
L 124.809109 198.724083 
L 128.48878 189.796422 
L 132.168451 185.267364 
L 135.848122 181.421344 
L 139.527794 176.081379 
L 143.207465 171.579205 
L 146.887136 169.134712 
L 150.566807 165.253363 
L 154.246478 162.359098 
L 157.926149 160.495813 
L 161.60582 158.400207 
L 165.285491 157.484491 
L 168.965162 155.254005 
L 172.644833 152.481499 
L 176.324504 151.307303 
L 180.004175 151.471059 
L 183.683847 150.133753 
L 187.363518 149.21769 
L 194.72286 146.633975 
L 198.402531 145.520066 
L 202.082202 144.664972 
L 205.761873 143.932282 
L 209.441544 142.815765 
L 213.121215 142.808146 
L 216.800886 141.587227 
L 220.480557 142.010348 
L 224.160228 140.387206 
L 231.519571 139.63893 
L 238.878913 138.317533 
L 242.558584 137.367655 
L 246.238255 136.653948 
L 249.917926 137.473181 
L 253.597597 136.317717 
L 257.277268 135.811187 
L 260.956939 134.815782 
L 264.63661 134.003559 
L 268.316281 134.344204 
L 271.995952 133.027353 
L 275.675624 132.88398 
L 279.355295 132.073503 
L 286.714637 130.609499 
L 290.394308 130.703697 
L 294.073979 131.120873 
L 297.75365 129.745206 
L 301.433321 129.340339 
L 305.112992 129.523257 
L 308.792663 129.167456 
L 312.472334 129.721666 
L 316.152005 128.097901 
L 319.831677 127.357005 
L 323.511348 127.747459 
L 327.191019 126.107379 
L 330.87069 126.248144 
L 334.550361 125.826769 
L 338.230032 126.579268 
L 341.909703 125.449378 
L 349.269045 125.11646 
L 352.948716 123.270758 
L 356.628387 124.185134 
L 360.308058 123.461332 
L 367.667401 123.133438 
L 371.347072 121.284267 
L 375.026743 121.623333 
L 378.706414 121.395654 
L 386.065756 120.517223 
L 389.745427 119.567189 
L 393.425098 118.809092 
L 397.104769 118.489225 
L 400.78444 119.131939 
L 404.464111 118.538375 
L 408.143783 118.287766 
L 411.823454 117.180758 
L 415.503125 117.107074 
L 419.182796 115.999613 
L 422.862467 115.495044 
L 430.221809 114.913431 
L 433.90148 115.114315 
L 437.581151 113.73695 
L 441.260822 113.75933 
L 444.940493 112.673627 
L 448.620164 112.982502 
L 452.299836 111.925231 
L 455.979507 111.574323 
L 459.659178 111.921044 
L 463.338849 111.981965 
L 467.01852 110.21649 
L 474.377862 110.000845 
L 478.057533 109.559482 
L 481.737204 108.6783 
L 485.416875 107.428051 
L 489.096546 107.343255 
L 492.776217 106.938507 
L 496.455889 106.787072 
L 500.13556 106.41901 
L 503.815231 105.61089 
L 507.494902 105.207661 
L 511.174573 103.644207 
L 514.854244 103.554459 
L 518.533915 103.683131 
L 522.213586 103.228311 
L 525.893257 103.192546 
L 529.572928 101.740587 
L 533.252599 102.332057 
L 536.93227 101.572238 
L 540.611942 99.491716 
L 544.291613 99.956571 
L 547.971284 100.135614 
L 551.650955 99.208379 
L 555.330626 98.402795 
L 559.010297 98.140116 
L 562.689968 98.071922 
L 566.369639 97.40355 
L 570.04931 96.354187 
L 573.728981 96.217141 
L 577.408652 96.235216 
L 581.088323 95.848757 
L 584.767995 94.938687 
L 588.447666 94.624238 
L 592.127337 94.640386 
L 595.807008 93.675065 
L 599.486679 93.298942 
L 603.16635 92.384865 
L 606.846021 92.636467 
L 610.525692 91.91666 
L 621.564705 90.11213 
L 625.244376 91.069461 
L 632.603719 89.39383 
L 636.28339 89.34267 
L 639.963061 89.128639 
L 643.642732 88.678437 
L 647.322403 87.813594 
L 651.002074 88.330016 
L 654.681745 87.910615 
L 658.361416 87.097292 
L 662.041087 86.42087 
L 669.400429 86.360487 
L 673.080101 85.560082 
L 676.759772 84.256628 
L 684.119114 84.780096 
L 687.798785 84.706723 
L 691.478456 83.16486 
L 695.158127 83.168604 
L 698.837798 83.683112 
L 702.517469 83.057157 
L 706.19714 82.970231 
L 709.876811 81.87491 
L 713.556482 81.778547 
L 717.236153 81.865293 
L 720.915825 81.471442 
L 724.595496 80.675403 
L 728.275167 80.351827 
L 731.954838 80.256792 
L 735.634509 81.453942 
L 739.31418 81.812207 
L 742.993851 81.367734 
L 746.673522 81.394564 
L 750.353193 81.633021 
L 757.712535 81.492925 
L 761.392206 81.029733 
L 765.071878 81.161455 
L 768.751549 80.356528 
L 772.43122 80.234315 
L 776.110891 80.441133 
L 779.790562 79.277248 
L 783.470233 79.467989 
L 787.149904 79.799364 
L 790.829575 79.357104 
L 794.509246 79.428516 
L 798.188917 79.963108 
L 801.868588 79.248408 
L 805.548259 78.968206 
L 809.227931 79.636841 
L 812.907602 78.319319 
L 816.587273 78.49841 
L 816.587273 78.49841 
" clip-path="url(#p6f6427985f)" style="fill: none; stroke: #1f77b4; stroke-width: 1.5; stroke-linecap: square"/>
   </g>
   <g id="line2d_34">
    <path d="M 84.332727 507.134507 
L 88.012398 503.083651 
L 91.692069 498.416041 
L 95.371741 470.071239 
L 99.051412 401.086214 
L 102.731083 322.462853 
L 106.410754 284.361783 
L 110.090425 275.769385 
L 113.770096 281.690419 
L 117.449767 275.317538 
L 121.129438 277.063802 
L 124.809109 263.755815 
L 128.48878 273.244091 
L 132.168451 258.131335 
L 135.848122 245.597832 
L 139.527794 236.539418 
L 143.207465 226.401191 
L 146.887136 221.617289 
L 150.566807 208.457711 
L 154.246478 208.268399 
L 157.926149 196.595762 
L 161.60582 190.760918 
L 165.285491 185.672531 
L 168.965162 175.436972 
L 172.644833 175.430435 
L 176.324504 164.162946 
L 180.004175 160.301543 
L 183.683847 158.089753 
L 187.363518 157.276453 
L 191.043189 150.860115 
L 194.72286 145.322124 
L 198.402531 140.712803 
L 202.082202 138.271409 
L 205.761873 132.364878 
L 209.441544 128.162339 
L 213.121215 127.260163 
L 216.800886 119.024235 
L 220.480557 118.946484 
L 224.160228 120.476804 
L 227.839899 117.674621 
L 231.519571 112.696426 
L 235.199242 111.338354 
L 238.878913 108.05299 
L 242.558584 106.969404 
L 246.238255 104.928092 
L 249.917926 101.708254 
L 253.597597 100.666905 
L 257.277268 100.501259 
L 260.956939 98.865294 
L 264.63661 96.33817 
L 268.316281 94.948771 
L 271.995952 92.310559 
L 275.675624 94.517504 
L 279.355295 90.13451 
L 283.034966 89.147072 
L 286.714637 87.580939 
L 290.394308 87.501932 
L 294.073979 86.779649 
L 297.75365 84.961973 
L 301.433321 84.954055 
L 305.112992 84.625754 
L 308.792663 81.581502 
L 312.472334 79.470812 
L 316.152005 79.464437 
L 319.831677 77.491259 
L 323.511348 77.238281 
L 327.191019 76.344599 
L 330.87069 75.178513 
L 334.550361 73.084653 
L 338.230032 72.096916 
L 341.909703 72.079548 
L 345.589374 70.658665 
L 349.269045 70.723964 
L 352.948716 70.19954 
L 356.628387 67.714413 
L 360.308058 67.785573 
L 363.98773 65.639992 
L 367.667401 65.151918 
L 371.347072 64.640029 
L 375.026743 61.571651 
L 378.706414 62.37751 
L 382.386085 62.941564 
L 386.065756 60.150733 
L 389.745427 60.518016 
L 393.425098 59.561272 
L 397.104769 59.152397 
L 400.78444 57.791431 
L 404.464111 58.138225 
L 408.143783 57.772065 
L 411.823454 55.187346 
L 415.503125 56.54135 
L 419.182796 55.863696 
L 422.862467 53.160687 
L 426.542138 53.814167 
L 430.221809 55.717452 
L 433.90148 52.630724 
L 437.581151 50.19433 
L 441.260822 49.932727 
L 444.940493 50.686625 
L 448.620164 50.846745 
" clip-path="url(#p6f6427985f)" style="fill: none; stroke: #ff7f0e; stroke-width: 1.5; stroke-linecap: square"/>
   </g>
   <g id="patch_3">
    <path d="M 47.72 534.04 
L 47.72 26.88 
" style="fill: none; stroke: #000000; stroke-width: 0.8; stroke-linejoin: miter; stroke-linecap: square"/>
   </g>
   <g id="patch_4">
    <path d="M 853.2 534.04 
L 853.2 26.88 
" style="fill: none; stroke: #000000; stroke-width: 0.8; stroke-linejoin: miter; stroke-linecap: square"/>
   </g>
   <g id="patch_5">
    <path d="M 47.72 534.04 
L 853.2 534.04 
" style="fill: none; stroke: #000000; stroke-width: 0.8; stroke-linejoin: miter; stroke-linecap: square"/>
   </g>
   <g id="patch_6">
    <path d="M 47.72 26.88 
L 853.2 26.88 
" style="fill: none; stroke: #000000; stroke-width: 0.8; stroke-linejoin: miter; stroke-linecap: square"/>
   </g>
   <g id="text_19">
    <!-- Validation IoU Curves Comparison -->
    <g transform="translate(348.526563 20.88) scale(0.12 -0.12)">
     <defs>
      <path id="DejaVuSans-56" d="M 1831 0 
L 50 4666 
L 709 4666 
L 2188 738 
L 3669 4666 
L 4325 4666 
L 2547 0 
L 1831 0 
z
" transform="scale(0.015625)"/>
      <path id="DejaVuSans-61" d="M 2194 1759 
Q 1497 1759 1228 1600 
Q 959 1441 959 1056 
Q 959 750 1161 570 
Q 1363 391 1709 391 
Q 2188 391 2477 730 
Q 2766 1069 2766 1631 
L 2766 1759 
L 2194 1759 
z
M 3341 1997 
L 3341 0 
L 2766 0 
L 2766 531 
Q 2569 213 2275 61 
Q 1981 -91 1556 -91 
Q 1019 -91 701 211 
Q 384 513 384 1019 
Q 384 1609 779 1909 
Q 1175 2209 1959 2209 
L 2766 2209 
L 2766 2266 
Q 2766 2663 2505 2880 
Q 2244 3097 1772 3097 
Q 1472 3097 1187 3025 
Q 903 2953 641 2809 
L 641 3341 
Q 956 3463 1253 3523 
Q 1550 3584 1831 3584 
Q 2591 3584 2966 3190 
Q 3341 2797 3341 1997 
z
" transform="scale(0.015625)"/>
      <path id="DejaVuSans-6c" d="M 603 4863 
L 1178 4863 
L 1178 0 
L 603 0 
L 603 4863 
z
" transform="scale(0.015625)"/>
      <path id="DejaVuSans-69" d="M 603 3500 
L 1178 3500 
L 1178 0 
L 603 0 
L 603 3500 
z
M 603 4863 
L 1178 4863 
L 1178 4134 
L 603 4134 
L 603 4863 
z
" transform="scale(0.015625)"/>
      <path id="DejaVuSans-64" d="M 2906 2969 
L 2906 4863 
L 3481 4863 
L 3481 0 
L 2906 0 
L 2906 525 
Q 2725 213 2448 61 
Q 2172 -91 1784 -91 
Q 1150 -91 751 415 
Q 353 922 353 1747 
Q 353 2572 751 3078 
Q 1150 3584 1784 3584 
Q 2172 3584 2448 3432 
Q 2725 3281 2906 2969 
z
M 947 1747 
Q 947 1113 1208 752 
Q 1469 391 1925 391 
Q 2381 391 2643 752 
Q 2906 1113 2906 1747 
Q 2906 2381 2643 2742 
Q 2381 3103 1925 3103 
Q 1469 3103 1208 2742 
Q 947 2381 947 1747 
z
" transform="scale(0.015625)"/>
      <path id="DejaVuSans-74" d="M 1172 4494 
L 1172 3500 
L 2356 3500 
L 2356 3053 
L 1172 3053 
L 1172 1153 
Q 1172 725 1289 603 
Q 1406 481 1766 481 
L 2356 481 
L 2356 0 
L 1766 0 
Q 1100 0 847 248 
Q 594 497 594 1153 
L 594 3053 
L 172 3053 
L 172 3500 
L 594 3500 
L 594 4494 
L 1172 4494 
z
" transform="scale(0.015625)"/>
      <path id="DejaVuSans-6e" d="M 3513 2113 
L 3513 0 
L 2938 0 
L 2938 2094 
Q 2938 2591 2744 2837 
Q 2550 3084 2163 3084 
Q 1697 3084 1428 2787 
Q 1159 2491 1159 1978 
L 1159 0 
L 581 0 
L 581 3500 
L 1159 3500 
L 1159 2956 
Q 1366 3272 1645 3428 
Q 1925 3584 2291 3584 
Q 2894 3584 3203 3211 
Q 3513 2838 3513 2113 
z
" transform="scale(0.015625)"/>
      <path id="DejaVuSans-43" d="M 4122 4306 
L 4122 3641 
Q 3803 3938 3442 4084 
Q 3081 4231 2675 4231 
Q 1875 4231 1450 3742 
Q 1025 3253 1025 2328 
Q 1025 1406 1450 917 
Q 1875 428 2675 428 
Q 3081 428 3442 575 
Q 3803 722 4122 1019 
L 4122 359 
Q 3791 134 3420 21 
Q 3050 -91 2638 -91 
Q 1578 -91 968 557 
Q 359 1206 359 2328 
Q 359 3453 968 4101 
Q 1578 4750 2638 4750 
Q 3056 4750 3426 4639 
Q 3797 4528 4122 4306 
z
" transform="scale(0.015625)"/>
      <path id="DejaVuSans-75" d="M 544 1381 
L 544 3500 
L 1119 3500 
L 1119 1403 
Q 1119 906 1312 657 
Q 1506 409 1894 409 
Q 2359 409 2629 706 
Q 2900 1003 2900 1516 
L 2900 3500 
L 3475 3500 
L 3475 0 
L 2900 0 
L 2900 538 
Q 2691 219 2414 64 
Q 2138 -91 1772 -91 
Q 1169 -91 856 284 
Q 544 659 544 1381 
z
M 1991 3584 
L 1991 3584 
z
" transform="scale(0.015625)"/>
      <path id="DejaVuSans-76" d="M 191 3500 
L 800 3500 
L 1894 563 
L 2988 3500 
L 3597 3500 
L 2284 0 
L 1503 0 
L 191 3500 
z
" transform="scale(0.015625)"/>
      <path id="DejaVuSans-73" d="M 2834 3397 
L 2834 2853 
Q 2591 2978 2328 3040 
Q 2066 3103 1784 3103 
Q 1356 3103 1142 2972 
Q 928 2841 928 2578 
Q 928 2378 1081 2264 
Q 1234 2150 1697 2047 
L 1894 2003 
Q 2506 1872 2764 1633 
Q 3022 1394 3022 966 
Q 3022 478 2636 193 
Q 2250 -91 1575 -91 
Q 1294 -91 989 -36 
Q 684 19 347 128 
L 347 722 
Q 666 556 975 473 
Q 1284 391 1588 391 
Q 1994 391 2212 530 
Q 2431 669 2431 922 
Q 2431 1156 2273 1281 
Q 2116 1406 1581 1522 
L 1381 1569 
Q 847 1681 609 1914 
Q 372 2147 372 2553 
Q 372 3047 722 3315 
Q 1072 3584 1716 3584 
Q 2034 3584 2315 3537 
Q 2597 3491 2834 3397 
z
" transform="scale(0.015625)"/>
      <path id="DejaVuSans-6d" d="M 3328 2828 
Q 3544 3216 3844 3400 
Q 4144 3584 4550 3584 
Q 5097 3584 5394 3201 
Q 5691 2819 5691 2113 
L 5691 0 
L 5113 0 
L 5113 2094 
Q 5113 2597 4934 2840 
Q 4756 3084 4391 3084 
Q 3944 3084 3684 2787 
Q 3425 2491 3425 1978 
L 3425 0 
L 2847 0 
L 2847 2094 
Q 2847 2600 2669 2842 
Q 2491 3084 2119 3084 
Q 1678 3084 1418 2786 
Q 1159 2488 1159 1978 
L 1159 0 
L 581 0 
L 581 3500 
L 1159 3500 
L 1159 2956 
Q 1356 3278 1631 3431 
Q 1906 3584 2284 3584 
Q 2666 3584 2933 3390 
Q 3200 3197 3328 2828 
z
" transform="scale(0.015625)"/>
     </defs>
     <use xlink:href="#DejaVuSans-56"/>
     <use xlink:href="#DejaVuSans-61" transform="translate(60.658203 0)"/>
     <use xlink:href="#DejaVuSans-6c" transform="translate(121.9375 0)"/>
     <use xlink:href="#DejaVuSans-69" transform="translate(149.720703 0)"/>
     <use xlink:href="#DejaVuSans-64" transform="translate(177.503906 0)"/>
     <use xlink:href="#DejaVuSans-61" transform="translate(240.980469 0)"/>
     <use xlink:href="#DejaVuSans-74" transform="translate(302.259766 0)"/>
     <use xlink:href="#DejaVuSans-69" transform="translate(341.46875 0)"/>
     <use xlink:href="#DejaVuSans-6f" transform="translate(369.251953 0)"/>
     <use xlink:href="#DejaVuSans-6e" transform="translate(430.433594 0)"/>
     <use xlink:href="#DejaVuSans-20" transform="translate(493.8125 0)"/>
     <use xlink:href="#DejaVuSans-49" transform="translate(525.599609 0)"/>
     <use xlink:href="#DejaVuSans-6f" transform="translate(555.091797 0)"/>
     <use xlink:href="#DejaVuSans-55" transform="translate(616.273438 0)"/>
     <use xlink:href="#DejaVuSans-20" transform="translate(689.466797 0)"/>
     <use xlink:href="#DejaVuSans-43" transform="translate(721.253906 0)"/>
     <use xlink:href="#DejaVuSans-75" transform="translate(791.078125 0)"/>
     <use xlink:href="#DejaVuSans-72" transform="translate(854.457031 0)"/>
     <use xlink:href="#DejaVuSans-76" transform="translate(895.570312 0)"/>
     <use xlink:href="#DejaVuSans-65" transform="translate(954.75 0)"/>
     <use xlink:href="#DejaVuSans-73" transform="translate(1016.273438 0)"/>
     <use xlink:href="#DejaVuSans-20" transform="translate(1068.373047 0)"/>
     <use xlink:href="#DejaVuSans-43" transform="translate(1100.160156 0)"/>
     <use xlink:href="#DejaVuSans-6f" transform="translate(1169.984375 0)"/>
     <use xlink:href="#DejaVuSans-6d" transform="translate(1231.166016 0)"/>
     <use xlink:href="#DejaVuSans-70" transform="translate(1328.578125 0)"/>
     <use xlink:href="#DejaVuSans-61" transform="translate(1392.054688 0)"/>
     <use xlink:href="#DejaVuSans-72" transform="translate(1453.333984 0)"/>
     <use xlink:href="#DejaVuSans-69" transform="translate(1494.447266 0)"/>
     <use xlink:href="#DejaVuSans-73" transform="translate(1522.230469 0)"/>
     <use xlink:href="#DejaVuSans-6f" transform="translate(1574.330078 0)"/>
     <use xlink:href="#DejaVuSans-6e" transform="translate(1635.511719 0)"/>
    </g>
   </g>
   <g id="legend_1">
    <g id="patch_7">
     <path d="M 580.55 529.04 
L 846.2 529.04 
Q 848.2 529.04 848.2 527.04 
L 848.2 498.68375 
Q 848.2 496.68375 846.2 496.68375 
L 580.55 496.68375 
Q 578.55 496.68375 578.55 498.68375 
L 578.55 527.04 
Q 578.55 529.04 580.55 529.04 
z
" style="fill: #ffffff; opacity: 0.8; stroke: #cccccc; stroke-linejoin: miter"/>
    </g>
    <g id="line2d_35">
     <path d="M 582.55 504.782187 
L 592.55 504.782187 
L 602.55 504.782187 
" style="fill: none; stroke: #1f77b4; stroke-width: 1.5; stroke-linecap: square"/>
    </g>
    <g id="text_20">
     <!-- Mean-teacher with unlabeled and labeled data -->
     <g transform="translate(610.55 508.282187) scale(0.1 -0.1)">
      <defs>
       <path id="DejaVuSans-4d" d="M 628 4666 
L 1569 4666 
L 2759 1491 
L 3956 4666 
L 4897 4666 
L 4897 0 
L 4281 0 
L 4281 4097 
L 3078 897 
L 2444 897 
L 1241 4097 
L 1241 0 
L 628 0 
L 628 4666 
z
" transform="scale(0.015625)"/>
       <path id="DejaVuSans-2d" d="M 313 2009 
L 1997 2009 
L 1997 1497 
L 313 1497 
L 313 2009 
z
" transform="scale(0.015625)"/>
       <path id="DejaVuSans-77" d="M 269 3500 
L 844 3500 
L 1563 769 
L 2278 3500 
L 2956 3500 
L 3675 769 
L 4391 3500 
L 4966 3500 
L 4050 0 
L 3372 0 
L 2619 2869 
L 1863 0 
L 1184 0 
L 269 3500 
z
" transform="scale(0.015625)"/>
       <path id="DejaVuSans-62" d="M 3116 1747 
Q 3116 2381 2855 2742 
Q 2594 3103 2138 3103 
Q 1681 3103 1420 2742 
Q 1159 2381 1159 1747 
Q 1159 1113 1420 752 
Q 1681 391 2138 391 
Q 2594 391 2855 752 
Q 3116 1113 3116 1747 
z
M 1159 2969 
Q 1341 3281 1617 3432 
Q 1894 3584 2278 3584 
Q 2916 3584 3314 3078 
Q 3713 2572 3713 1747 
Q 3713 922 3314 415 
Q 2916 -91 2278 -91 
Q 1894 -91 1617 61 
Q 1341 213 1159 525 
L 1159 0 
L 581 0 
L 581 4863 
L 1159 4863 
L 1159 2969 
z
" transform="scale(0.015625)"/>
      </defs>
      <use xlink:href="#DejaVuSans-4d"/>
      <use xlink:href="#DejaVuSans-65" transform="translate(86.279297 0)"/>
      <use xlink:href="#DejaVuSans-61" transform="translate(147.802734 0)"/>
      <use xlink:href="#DejaVuSans-6e" transform="translate(209.082031 0)"/>
      <use xlink:href="#DejaVuSans-2d" transform="translate(272.460938 0)"/>
      <use xlink:href="#DejaVuSans-74" transform="translate(308.544922 0)"/>
      <use xlink:href="#DejaVuSans-65" transform="translate(347.753906 0)"/>
      <use xlink:href="#DejaVuSans-61" transform="translate(409.277344 0)"/>
      <use xlink:href="#DejaVuSans-63" transform="translate(470.556641 0)"/>
      <use xlink:href="#DejaVuSans-68" transform="translate(525.537109 0)"/>
      <use xlink:href="#DejaVuSans-65" transform="translate(588.916016 0)"/>
      <use xlink:href="#DejaVuSans-72" transform="translate(650.439453 0)"/>
      <use xlink:href="#DejaVuSans-20" transform="translate(691.552734 0)"/>
      <use xlink:href="#DejaVuSans-77" transform="translate(723.339844 0)"/>
      <use xlink:href="#DejaVuSans-69" transform="translate(805.126953 0)"/>
      <use xlink:href="#DejaVuSans-74" transform="translate(832.910156 0)"/>
      <use xlink:href="#DejaVuSans-68" transform="translate(872.119141 0)"/>
      <use xlink:href="#DejaVuSans-20" transform="translate(935.498047 0)"/>
      <use xlink:href="#DejaVuSans-75" transform="translate(967.285156 0)"/>
      <use xlink:href="#DejaVuSans-6e" transform="translate(1030.664062 0)"/>
      <use xlink:href="#DejaVuSans-6c" transform="translate(1094.042969 0)"/>
      <use xlink:href="#DejaVuSans-61" transform="translate(1121.826172 0)"/>
      <use xlink:href="#DejaVuSans-62" transform="translate(1183.105469 0)"/>
      <use xlink:href="#DejaVuSans-65" transform="translate(1246.582031 0)"/>
      <use xlink:href="#DejaVuSans-6c" transform="translate(1308.105469 0)"/>
      <use xlink:href="#DejaVuSans-65" transform="translate(1335.888672 0)"/>
      <use xlink:href="#DejaVuSans-64" transform="translate(1397.412109 0)"/>
      <use xlink:href="#DejaVuSans-20" transform="translate(1460.888672 0)"/>
      <use xlink:href="#DejaVuSans-61" transform="translate(1492.675781 0)"/>
      <use xlink:href="#DejaVuSans-6e" transform="translate(1553.955078 0)"/>
      <use xlink:href="#DejaVuSans-64" transform="translate(1617.333984 0)"/>
      <use xlink:href="#DejaVuSans-20" transform="translate(1680.810547 0)"/>
      <use xlink:href="#DejaVuSans-6c" transform="translate(1712.597656 0)"/>
      <use xlink:href="#DejaVuSans-61" transform="translate(1740.380859 0)"/>
      <use xlink:href="#DejaVuSans-62" transform="translate(1801.660156 0)"/>
      <use xlink:href="#DejaVuSans-65" transform="translate(1865.136719 0)"/>
      <use xlink:href="#DejaVuSans-6c" transform="translate(1926.660156 0)"/>
      <use xlink:href="#DejaVuSans-65" transform="translate(1954.443359 0)"/>
      <use xlink:href="#DejaVuSans-64" transform="translate(2015.966797 0)"/>
      <use xlink:href="#DejaVuSans-20" transform="translate(2079.443359 0)"/>
      <use xlink:href="#DejaVuSans-64" transform="translate(2111.230469 0)"/>
      <use xlink:href="#DejaVuSans-61" transform="translate(2174.707031 0)"/>
      <use xlink:href="#DejaVuSans-74" transform="translate(2235.986328 0)"/>
      <use xlink:href="#DejaVuSans-61" transform="translate(2275.195312 0)"/>
     </g>
    </g>
    <g id="line2d_36">
     <path d="M 582.55 519.460312 
L 592.55 519.460312 
L 602.55 519.460312 
" style="fill: none; stroke: #ff7f0e; stroke-width: 1.5; stroke-linecap: square"/>
    </g>
    <g id="text_21">
     <!-- Mean-teacher with labeled data only -->
     <g transform="translate(610.55 522.960312) scale(0.1 -0.1)">
      <defs>
       <path id="DejaVuSans-79" d="M 2059 -325 
Q 1816 -950 1584 -1140 
Q 1353 -1331 966 -1331 
L 506 -1331 
L 506 -850 
L 844 -850 
Q 1081 -850 1212 -737 
Q 1344 -625 1503 -206 
L 1606 56 
L 191 3500 
L 800 3500 
L 1894 763 
L 2988 3500 
L 3597 3500 
L 2059 -325 
z
" transform="scale(0.015625)"/>
      </defs>
      <use xlink:href="#DejaVuSans-4d"/>
      <use xlink:href="#DejaVuSans-65" transform="translate(86.279297 0)"/>
      <use xlink:href="#DejaVuSans-61" transform="translate(147.802734 0)"/>
      <use xlink:href="#DejaVuSans-6e" transform="translate(209.082031 0)"/>
      <use xlink:href="#DejaVuSans-2d" transform="translate(272.460938 0)"/>
      <use xlink:href="#DejaVuSans-74" transform="translate(308.544922 0)"/>
      <use xlink:href="#DejaVuSans-65" transform="translate(347.753906 0)"/>
      <use xlink:href="#DejaVuSans-61" transform="translate(409.277344 0)"/>
      <use xlink:href="#DejaVuSans-63" transform="translate(470.556641 0)"/>
      <use xlink:href="#DejaVuSans-68" transform="translate(525.537109 0)"/>
      <use xlink:href="#DejaVuSans-65" transform="translate(588.916016 0)"/>
      <use xlink:href="#DejaVuSans-72" transform="translate(650.439453 0)"/>
      <use xlink:href="#DejaVuSans-20" transform="translate(691.552734 0)"/>
      <use xlink:href="#DejaVuSans-77" transform="translate(723.339844 0)"/>
      <use xlink:href="#DejaVuSans-69" transform="translate(805.126953 0)"/>
      <use xlink:href="#DejaVuSans-74" transform="translate(832.910156 0)"/>
      <use xlink:href="#DejaVuSans-68" transform="translate(872.119141 0)"/>
      <use xlink:href="#DejaVuSans-20" transform="translate(935.498047 0)"/>
      <use xlink:href="#DejaVuSans-6c" transform="translate(967.285156 0)"/>
      <use xlink:href="#DejaVuSans-61" transform="translate(995.068359 0)"/>
      <use xlink:href="#DejaVuSans-62" transform="translate(1056.347656 0)"/>
      <use xlink:href="#DejaVuSans-65" transform="translate(1119.824219 0)"/>
      <use xlink:href="#DejaVuSans-6c" transform="translate(1181.347656 0)"/>
      <use xlink:href="#DejaVuSans-65" transform="translate(1209.130859 0)"/>
      <use xlink:href="#DejaVuSans-64" transform="translate(1270.654297 0)"/>
      <use xlink:href="#DejaVuSans-20" transform="translate(1334.130859 0)"/>
      <use xlink:href="#DejaVuSans-64" transform="translate(1365.917969 0)"/>
      <use xlink:href="#DejaVuSans-61" transform="translate(1429.394531 0)"/>
      <use xlink:href="#DejaVuSans-74" transform="translate(1490.673828 0)"/>
      <use xlink:href="#DejaVuSans-61" transform="translate(1529.882812 0)"/>
      <use xlink:href="#DejaVuSans-20" transform="translate(1591.162109 0)"/>
      <use xlink:href="#DejaVuSans-6f" transform="translate(1622.949219 0)"/>
      <use xlink:href="#DejaVuSans-6e" transform="translate(1684.130859 0)"/>
      <use xlink:href="#DejaVuSans-6c" transform="translate(1747.509766 0)"/>
      <use xlink:href="#DejaVuSans-79" transform="translate(1775.292969 0)"/>
     </g>
    </g>
   </g>
  </g>
 </g>
 <defs>
  <clipPath id="p6f6427985f">
   <rect x="47.72" y="26.88" width="805.48" height="507.16"/>
  </clipPath>
 </defs>
</svg>
